<?xml version="1.0" encoding="UTF-8"?>
<svg version="1.1" xmlns="http://www.w3.org/2000/svg" width="600" height="600">
<path d="M0 0 C13.60662589 11.70979143 23.27821199 28.82084432 24.63671875 46.9453125 C24.66636719 47.70457031 24.69601562 48.46382813 24.7265625 49.24609375 C24.76652344 50.18066406 24.80648437 51.11523438 24.84765625 52.078125 C25.02985551 60.42713826 23.79881779 68.18110019 21.7265625 76.24609375 C22.29930908 76.08455811 22.87205566 75.92302246 23.4621582 75.7565918 C27.25183737 74.90222855 31.04402172 75.06159146 34.9140625 75.05859375 C35.72681641 75.04634766 36.53957031 75.03410156 37.37695312 75.02148438 C45.17120569 75.00288234 52.22777603 76.0907442 59.1640625 79.80859375 C59.98777344 80.24300781 60.81148437 80.67742187 61.66015625 81.125 C62.34207031 81.49496094 63.02398437 81.86492187 63.7265625 82.24609375 C64.3865625 82.57609375 65.0465625 82.90609375 65.7265625 83.24609375 C65.98050781 82.40046875 66.23445312 81.55484375 66.49609375 80.68359375 C68.38714502 74.45091542 70.34551103 68.30695204 72.7265625 62.24609375 C73.6230682 59.91301867 74.51885537 57.5796674 75.4140625 55.24609375 C76.184566 53.24596666 76.95528681 51.2459232 77.7265625 49.24609375 C78.3865625 49.24609375 79.0465625 49.24609375 79.7265625 49.24609375 C86.2265625 68.74609375 86.2265625 68.74609375 92.7265625 88.24609375 C94.68290143 88.71030977 96.6399418 89.17191659 98.6015625 89.61328125 C103.16556282 90.9724137 105.73493464 93.62542772 108.13671875 97.55078125 C112.99105373 106.86317896 115.05422345 115.69995678 113.7265625 126.24609375 C112.5 128.28515625 112.5 128.28515625 111.0390625 129.87109375 C109.22135063 131.9839896 108.70797563 132.761219 108.81640625 135.58984375 C110.00839618 140.61171847 111.75067355 145.33125941 113.71484375 150.09375 C117.87024638 160.57457725 119.85029293 167.44494522 115.30493164 178.0925293 C114.49324108 179.83346263 113.61479912 181.54294192 112.7265625 183.24609375 C112.3965625 183.90609375 112.0665625 184.56609375 111.7265625 185.24609375 C112.39300781 185.271875 113.05945313 185.29765625 113.74609375 185.32421875 C123.44333501 185.92097206 132.50093066 187.70021075 139.1875 195.2265625 C150.44910546 210.00384682 157.97379393 229.06747828 164.2890625 246.37109375 C166.87782454 253.44436066 169.55805249 260.40985857 172.7265625 267.24609375 C173.31469727 267.09237305 173.90283203 266.93865234 174.50878906 266.78027344 C182.40220145 264.76548269 191.14389626 263.74640164 198.7265625 267.24609375 C205.04129042 273.19563259 208.04763172 281.6444518 209.2890625 290.05859375 C208.27374328 295.81206935 204.50907009 298.79196676 200.0390625 302.12109375 C196.7265625 304.24609375 196.7265625 304.24609375 194.7265625 304.24609375 C194.7265625 304.90609375 194.7265625 305.56609375 194.7265625 306.24609375 C192.63671875 307.796875 192.63671875 307.796875 189.7890625 309.55859375 C188.78101563 310.1825 187.77296875 310.80640625 186.734375 311.44921875 C183.52275749 313.36784739 180.2792296 315.20287349 176.9921875 316.98828125 C173.60137071 318.87076919 170.29838862 320.89388425 166.98828125 322.9140625 C166.24191406 323.35363281 165.49554688 323.79320312 164.7265625 324.24609375 C164.09105469 324.62636719 163.45554687 325.00664062 162.80078125 325.3984375 C158.01388908 327.35466274 151.46360106 327.28853057 146.64453125 325.453125 C143.82039361 323.65969453 142.79257709 322.44413751 141.7265625 319.24609375 C141.0665625 319.24609375 140.4065625 319.24609375 139.7265625 319.24609375 C136.7265625 314.86147837 136.7265625 314.86147837 136.7265625 312.24609375 C136.0665625 312.24609375 135.4065625 312.24609375 134.7265625 312.24609375 C132.68486765 309.34060493 131.7265625 307.84467329 131.7265625 304.24609375 C131.0665625 304.24609375 130.4065625 304.24609375 129.7265625 304.24609375 C129.40945313 303.64925781 129.09234375 303.05242187 128.765625 302.4375 C123.99302923 293.56469075 118.89172601 284.89478704 113.7265625 276.24609375 C113.35176758 275.61783691 112.97697266 274.98958008 112.59082031 274.34228516 C108.95539119 268.27167985 105.28456706 262.35935285 100.85546875 256.83203125 C99.7265625 255.24609375 99.7265625 255.24609375 98.7265625 252.24609375 C95.02593713 250.28576247 91.55396316 249.89405423 87.4140625 249.62109375 C86.34542969 249.54632813 85.27679688 249.4715625 84.17578125 249.39453125 C83.36753906 249.34554688 82.55929687 249.2965625 81.7265625 249.24609375 C82.63535156 249.93832031 82.63535156 249.93832031 83.5625 250.64453125 C101.33406308 264.47900959 109.76949847 277.09937187 112.74633789 299.31637573 C113.04625017 301.54961536 113.3589273 303.78079057 113.67382812 306.01196289 C114.80518785 314.09953729 115.85304857 322.19491997 116.83061218 330.30252075 C117.32856362 334.418669 117.84183671 338.53285857 118.35531616 342.64709473 C118.60219267 344.66634769 118.84070347 346.68664159 119.07070923 348.70788574 C119.39477134 351.55540349 119.74553615 354.39851562 120.1015625 357.2421875 C120.19112717 358.09483688 120.28069183 358.94748627 120.37297058 359.82597351 C120.90474548 363.86772587 121.20109894 365.70532229 124.11499023 368.70410156 C126.66128631 370.20755169 129.2433482 371.5222855 131.94287109 372.72973633 C141.2274073 376.89807809 141.2274073 376.89807809 143.6015625 380.55859375 C145.24330578 385.93986338 146.23256993 390.97464064 143.796875 396.265625 C139.14987392 402.57619747 131.17637989 405.33524456 123.73046875 406.859375 C107.4331129 408.95747413 94.74778761 404.65287691 81.81640625 394.7890625 C80.41706865 393.65102627 79.06722947 392.45269403 77.7265625 391.24609375 C77.23027344 390.82070313 76.73398437 390.3953125 76.22265625 389.95703125 C69.29051374 382.02941136 68.66191028 368.54594007 67.17382812 358.59179688 C65.23411404 340.98581467 65.23411404 340.98581467 56.7265625 326.24609375 C49.82496228 322.68982859 42.4912607 321.17939995 34.9140625 319.80859375 C32.70261337 319.38416759 30.49168159 318.95703784 28.28125 318.52734375 C27.18264648 318.31464844 26.08404297 318.10195313 24.95214844 317.8828125 C6.73050994 314.28592837 -9.83664785 310.97340858 -23.2734375 297.24609375 C-23.89605469 296.66988281 -24.51867187 296.09367187 -25.16015625 295.5 C-34.36797038 286.87155395 -41.98171288 275.18794004 -47.40625 263.84375 C-51.4342651 255.10027492 -51.4342651 255.10027492 -58.96875 249.8203125 C-62.76489314 249.38635976 -66.45631997 249.29693216 -70.2734375 249.24609375 C-73.13303784 248.47918239 -75.56772493 247.46090348 -78.2734375 246.24609375 C-78.2734375 245.58609375 -78.2734375 244.92609375 -78.2734375 244.24609375 C-78.9953125 244.03984375 -79.7171875 243.83359375 -80.4609375 243.62109375 C-84.24562134 241.77080387 -85.79602403 239.64368937 -88.2734375 236.24609375 C-88.2734375 235.58609375 -88.2734375 234.92609375 -88.2734375 234.24609375 C-88.9334375 234.24609375 -89.5934375 234.24609375 -90.2734375 234.24609375 C-91.09096053 232.66534811 -91.90225747 231.08138152 -92.7109375 229.49609375 C-93.38962891 228.17351562 -93.38962891 228.17351562 -94.08203125 226.82421875 C-96.22609831 222.18459823 -96.35051797 218.46498081 -96.23828125 213.34765625 C-95.92847934 191.8230354 -95.92847934 191.8230354 -107.2734375 174.24609375 C-108.53996323 172.36737261 -109.75576323 170.45261517 -110.8984375 168.49609375 C-111.36507812 167.7175 -111.83171875 166.93890625 -112.3125 166.13671875 C-113.2734375 164.24609375 -113.2734375 164.24609375 -113.2734375 162.24609375 C-113.9334375 162.24609375 -114.5934375 162.24609375 -115.2734375 162.24609375 C-117.35763651 157.86071063 -119.42013993 153.46665106 -121.44433594 149.05322266 C-122.09283879 147.63973086 -122.74822384 146.2293961 -123.40625 144.8203125 C-126.26294524 138.12233289 -126.40319979 131.36335405 -123.7109375 124.62109375 C-119.7147904 116.67086425 -113.51453986 111.21142108 -106.2734375 106.24609375 C-106.64855469 105.77300781 -107.02367187 105.29992187 -107.41015625 104.8125 C-120.9939776 87.25960238 -127.16080175 67.33359702 -125.2734375 45.24609375 C-123.86357411 34.86479964 -119.6039528 26.12616333 -114.2734375 17.24609375 C-113.74878906 16.29992187 -113.22414062 15.35375 -112.68359375 14.37890625 C-112.21824219 13.67507812 -111.75289062 12.97125 -111.2734375 12.24609375 C-110.6134375 12.24609375 -109.9534375 12.24609375 -109.2734375 12.24609375 C-109.00144531 11.66085938 -108.72945312 11.075625 -108.44921875 10.47265625 C-106.06744291 5.96231662 -102.9852949 2.10202245 -98.3984375 -0.19140625 C-97.6971875 -0.37703125 -96.9959375 -0.56265625 -96.2734375 -0.75390625 C-96.2734375 -1.41390625 -96.2734375 -2.07390625 -96.2734375 -2.75390625 C-67.57987336 -23.61717541 -27.42336496 -21.15651352 0 0 Z " fill="#DFEAFE" transform="translate(263.2734375,105.75390625)"/>
<path d="M0 0 C13.60662589 11.70979143 23.27821199 28.82084432 24.63671875 46.9453125 C24.66636719 47.70457031 24.69601562 48.46382813 24.7265625 49.24609375 C24.76652344 50.18066406 24.80648437 51.11523438 24.84765625 52.078125 C25.02985551 60.42713826 23.79881779 68.18110019 21.7265625 76.24609375 C22.3865625 76.57609375 23.0465625 76.90609375 23.7265625 77.24609375 C22.7365625 77.57609375 21.7465625 77.90609375 20.7265625 78.24609375 C19.49952432 80.69457819 19.49952432 80.69457819 18.4765625 83.68359375 C11.05387738 102.35076318 -3.44489308 114.72834546 -21.47094727 122.60009766 C-28.04092701 125.32156791 -34.13853828 126.88303472 -41.2734375 127.24609375 C-42.01851563 127.28702148 -42.76359375 127.32794922 -43.53125 127.37011719 C-65.40108227 128.42021628 -83.8904936 122.30839748 -101.13671875 108.8125 C-103.27959646 107.07411951 -103.27959646 107.07411951 -106.2734375 106.24609375 C-120.18325014 91.34815234 -126.19736505 70.119003 -125.6171875 50.22265625 C-124.95860846 37.92134066 -120.5461565 27.69577413 -114.2734375 17.24609375 C-113.74878906 16.29992187 -113.22414062 15.35375 -112.68359375 14.37890625 C-112.21824219 13.67507812 -111.75289062 12.97125 -111.2734375 12.24609375 C-110.6134375 12.24609375 -109.9534375 12.24609375 -109.2734375 12.24609375 C-109.00144531 11.66085938 -108.72945312 11.075625 -108.44921875 10.47265625 C-106.06744291 5.96231662 -102.9852949 2.10202245 -98.3984375 -0.19140625 C-97.6971875 -0.37703125 -96.9959375 -0.56265625 -96.2734375 -0.75390625 C-96.2734375 -1.41390625 -96.2734375 -2.07390625 -96.2734375 -2.75390625 C-67.57987336 -23.61717541 -27.42336496 -21.15651352 0 0 Z " fill="#DFEAFE" transform="translate(263.2734375,105.75390625)"/>
<path d="M0 0 C0.66 0 1.32 0 2 0 C6.33333333 13 10.66666667 26 15 39 C16.95633893 39.46421602 18.9133793 39.92582284 20.875 40.3671875 C25.43900032 41.72631995 28.00837214 44.37933397 30.41015625 48.3046875 C35.26449123 57.61708521 37.32766095 66.45386303 36 77 C34.7734375 79.0390625 34.7734375 79.0390625 33.3125 80.625 C31.49478813 82.73789585 30.98141313 83.51512525 31.08984375 86.34375 C32.28183368 91.36562472 34.02411105 96.08516566 35.98828125 100.84765625 C42.36005317 116.87904036 42.36005317 116.87904036 38.8125 125.8125 C37.91299934 127.89641655 36.96497299 129.94100747 35.96386719 131.97802734 C34.69817181 134.63316643 33.68127152 137.35037493 32.67285156 140.11157227 C32.18420241 141.449517 31.68097971 142.78223216 31.16308594 144.10913086 C29.8945451 147.37566403 28.81909222 150.56566409 28.0390625 153.984375 C26.22200991 161.54820946 23.84549403 166.07744893 17.3125 170.25 C15.2811396 171.47408273 13.23163874 172.6485327 11.15625 173.79638672 C8.22948678 175.43009853 5.38516907 177.18623498 2.53344727 178.94677734 C1.04518638 179.86195063 -0.44924374 180.76716194 -1.94946289 181.66259766 C-6.0949866 184.14578349 -10.09630981 186.73857423 -14.02734375 189.55078125 C-14.8778833 190.14528076 -15.72842285 190.73978027 -16.60473633 191.35229492 C-18.22218048 192.48997408 -19.82181543 193.65365733 -21.3972168 194.84887695 C-28.79915316 199.99083615 -36.30729659 199.97576609 -45 200 C-46.80224855 200.01963279 -48.60449454 200.03950087 -50.40673828 200.05957031 C-56.27148833 200.10747135 -62.13518737 200.08784533 -68 200.0625 C-70.04687389 200.05747043 -72.093749 200.05291012 -74.140625 200.04882812 C-79.09378055 200.03794843 -84.04687644 200.0207658 -89 200 C-90.20866585 197.11255688 -91.38802937 194.21400173 -92.5625 191.3125 C-93.07586914 190.08756836 -93.07586914 190.08756836 -93.59960938 188.83789062 C-96.65204293 181.22222307 -96.65204293 181.22222307 -95 177 C-93.6171875 174.921875 -93.6171875 174.921875 -91.875 172.75 C-87.184776 166.33841545 -84.51285184 159.19584551 -81.70678711 151.82250977 C-81.12229215 150.31534055 -80.48223454 148.82985007 -79.828125 147.3515625 C-77.97154329 142.07957104 -77.90588304 135.79858843 -79.9453125 130.58203125 C-82.71245078 125.94402904 -86.12069103 122.43965449 -91 120 C-94.37306618 119.41585298 -94.37306618 119.41585298 -98 120 C-102.51813788 124.19541375 -105.16558562 129.572398 -108 135 C-110.25 134.9375 -110.25 134.9375 -113 134 C-117.09966936 128.22830863 -119.45984251 121.39949534 -122.125 114.875 C-122.56714844 113.80378906 -123.00929687 112.73257813 -123.46484375 111.62890625 C-124.64944864 108.75507626 -125.8290897 105.87943494 -127 103 C-127.56436768 101.71633545 -127.56436768 101.71633545 -128.14013672 100.40673828 C-129 98 -129 98 -129 94 C-128.25434784 94.01189865 -127.50869568 94.0237973 -126.740448 94.03605652 C-119.65113864 94.1392197 -112.56389356 94.1881184 -105.47398186 94.17878246 C-101.83012461 94.17582561 -98.18874649 94.19253603 -94.54541016 94.25708008 C-74.21193849 95.29695653 -74.21193849 95.29695653 -56.89559937 86.28544617 C-55.56478981 84.88698445 -54.28022529 83.44491262 -53 82 C-51.64143255 80.86296093 -50.25996187 79.75188118 -48.84375 78.6875 C-47.72875995 77.79217293 -46.6141639 76.89635494 -45.5 76 C-39.91157628 71.51624749 -34.29499376 67.07014267 -28.65429688 62.65234375 C-27.10174056 61.43632958 -25.55082611 60.21821999 -24 59 C-22.65808594 58.07574219 -22.65808594 58.07574219 -21.2890625 57.1328125 C-18.37839975 54.4208298 -17.25341739 51.5530093 -16 47.875 C-15.75145264 47.18212891 -15.50290527 46.48925781 -15.24682617 45.77539062 C-13.11994525 39.69897516 -11.36175377 33.52006464 -9.73632812 27.29248047 C-8.45045879 22.39206381 -6.85258486 17.71371285 -5 13 C-4.54238281 11.80375 -4.08476562 10.6075 -3.61328125 9.375 C-3.18402344 8.26125 -2.75476563 7.1475 -2.3125 6 C-1.87550781 4.865625 -1.43851562 3.73125 -0.98828125 2.5625 C-0.66214844 1.716875 -0.33601562 0.87125 0 0 Z " fill="#FE78B3" transform="translate(341,155)"/>
<path d="M0 0 C7.99145405 7.1453001 14.26706562 17.8886189 15.15332031 28.75732422 C15.55972349 48.87428163 12.72029627 64.42369963 -1.63671875 79.53125 C-13.83709535 91.10854311 -28.26442736 95.37304435 -44.8359375 95.0546875 C-57.80256686 94.45449063 -69.00812264 88.25741272 -77.8828125 79.03125 C-87.77591437 67.36836246 -90.22634359 53.71211191 -89.0078125 38.78125 C-87.2978647 30.18031495 -83.42917389 23.56943767 -78.0078125 16.78125 C-77.18796875 15.71583984 -77.18796875 15.71583984 -76.3515625 14.62890625 C-59.84587687 -5.65284425 -22.65690099 -16.93043151 0 0 Z " fill="#1D3278" transform="translate(257.0078125,124.21875)"/>
<path d="M0 0 C0.99 0.495 0.99 0.495 2 1 C1.67 1.99 1.34 2.98 1 4 C1.65066343 6.43206214 2.37628343 8.72825653 3.21875 11.09375 C3.46797211 11.81619904 3.71719421 12.53864807 3.97396851 13.2829895 C4.80736166 15.6917475 5.65364254 18.09576962 6.5 20.5 C7.08818829 22.19162146 7.67557628 23.88352137 8.26220703 25.57568359 C9.83703955 30.11119489 11.42295197 34.6427604 13.01086426 39.17370605 C14.66765659 43.90771974 16.31375445 48.6454487 17.9609375 53.3828125 C21.04172003 62.23776423 24.13113178 71.08966035 27.22949219 79.93847656 C28.47870575 83.50683279 29.72339667 87.07673509 30.96582031 90.64746094 C31.28680695 91.56852631 31.60779358 92.48959167 31.93850708 93.43856812 C32.55535243 95.20872668 33.17118096 96.97923998 33.78585815 98.75015259 C34.06164703 99.54078094 34.33743591 100.3314093 34.62158203 101.14599609 C34.86425812 101.84373138 35.1069342 102.54146667 35.35696411 103.26034546 C35.99096931 105.07308048 35.99096931 105.07308048 37 107 C23.98886709 108.04688633 11.04630608 108.11888081 -2 108.0625 C-4.04687389 108.05747043 -6.093749 108.05291012 -8.140625 108.04882812 C-13.09378055 108.03794843 -18.04687644 108.0207658 -23 108 C-24.20866585 105.11255688 -25.38802937 102.21400173 -26.5625 99.3125 C-27.07586914 98.08756836 -27.07586914 98.08756836 -27.59960938 96.83789062 C-30.65204293 89.22222307 -30.65204293 89.22222307 -29 85 C-27.6171875 82.921875 -27.6171875 82.921875 -25.875 80.75 C-21.184776 74.33841545 -18.51285184 67.19584551 -15.70678711 59.82250977 C-15.12229215 58.31534055 -14.48223454 56.82985007 -13.828125 55.3515625 C-11.97154329 50.07957104 -11.90588304 43.79858843 -13.9453125 38.58203125 C-16.71245078 33.94402904 -20.12069103 30.43965449 -25 28 C-28.37306618 27.41585298 -28.37306618 27.41585298 -32 28 C-36.51813788 32.19541375 -39.16558562 37.572398 -42 43 C-44.25 42.9375 -44.25 42.9375 -47 42 C-51.09966936 36.22830863 -53.45984251 29.39949534 -56.125 22.875 C-56.56714844 21.80378906 -57.00929687 20.73257812 -57.46484375 19.62890625 C-58.64944864 16.75507626 -59.8290897 13.87943494 -61 11 C-61.56436768 9.71633545 -61.56436768 9.71633545 -62.14013672 8.40673828 C-63 6 -63 6 -63 2 C-62.22547989 1.98969254 -61.45095978 1.97938507 -60.65296936 1.96876526 C-53.36871079 1.87095703 -46.08454054 1.76846689 -38.80042362 1.66066074 C-35.05521202 1.60539769 -31.30999266 1.55197245 -27.56469727 1.50268555 C-23.95311414 1.45509165 -20.34162868 1.40275094 -16.73016167 1.34705925 C-15.34942481 1.32661306 -13.96866114 1.30790378 -12.58787727 1.29092598 C-10.66016686 1.2669322 -8.73254251 1.23629736 -6.80493164 1.20532227 C-5.15612755 1.18200584 -5.15612755 1.18200584 -3.47401428 1.15821838 C-1.05693927 1.27711808 -1.05693927 1.27711808 0 0 Z " fill="#FE97C9" transform="translate(275,247)"/>
<path d="M0 0 C0.66 0 1.32 0 2 0 C6.33333333 13 10.66666667 26 15 39 C16.95633893 39.46421602 18.9133793 39.92582284 20.875 40.3671875 C25.43900032 41.72631995 28.00837214 44.37933397 30.41015625 48.3046875 C35.26449123 57.61708521 37.32766095 66.45386303 36 77 C34.7734375 79.0390625 34.7734375 79.0390625 33.3125 80.625 C31.49478813 82.73789585 30.98141313 83.51512525 31.08984375 86.34375 C32.28183368 91.36562472 34.02411105 96.08516566 35.98828125 100.84765625 C42.36005317 116.87904036 42.36005317 116.87904036 38.8125 125.8125 C37.91299934 127.89641655 36.96497299 129.94100747 35.96386719 131.97802734 C34.39244114 135.27451937 33.18510945 138.69605138 31.9375 142.125 C31.44442846 143.42984555 30.95094092 144.73453397 30.45703125 146.0390625 C28.12524541 152.29781967 26.06245821 158.64835878 24 165 C22.39458117 162.59187176 21.48683858 160.89322919 20.53271484 158.24511719 C20.26141754 157.49949524 19.99012024 156.75387329 19.71060181 155.98565674 C19.42196259 155.18085876 19.13332336 154.37606079 18.8359375 153.546875 C18.20714268 151.81689841 17.57789713 150.08708559 16.94824219 148.35742188 C16.62561401 147.46821045 16.30298584 146.57899902 15.97058105 145.6628418 C14.45365885 141.50108341 12.90411015 137.35170006 11.3515625 133.203125 C11.04864792 132.39311539 10.74573334 131.58310577 10.43363953 130.74855042 C9.49823209 128.24873103 8.56175081 125.74931627 7.625 123.25 C7.29984406 122.38180634 6.97468811 121.51361267 6.63967896 120.61911011 C2.8119919 110.40393733 -1.05084497 100.20707771 -5.0625 90.0625 C-7.62683899 83.57709751 -10.11241352 77.07539924 -12.4375 70.5 C-12.67283447 69.83492432 -12.90816895 69.16984863 -13.15063477 68.48461914 C-14.23187692 65.37730171 -15.20202533 62.27435455 -16.03515625 59.09375 C-16.35355469 58.0728125 -16.67195313 57.051875 -17 56 C-17.66 55.67 -18.32 55.34 -19 55 C-18.62488281 54.05382812 -18.24976563 53.10765625 -17.86328125 52.1328125 C-14.6802479 43.95713434 -11.95050158 35.78630924 -9.73754883 27.29345703 C-8.44951978 22.39323701 -6.85274862 17.71412952 -5 13 C-4.54238281 11.80375 -4.08476562 10.6075 -3.61328125 9.375 C-3.18402344 8.26125 -2.75476563 7.1475 -2.3125 6 C-1.87550781 4.865625 -1.43851562 3.73125 -0.98828125 2.5625 C-0.66214844 1.716875 -0.33601563 0.87125 0 0 Z " fill="#FE97C9" transform="translate(341,155)"/>
<path d="M0 0 C-3.43935367 18.43226434 -13.55730328 34.37880532 -28.71484375 45.48046875 C-35.23039462 49.81303164 -41.99022056 52.47864556 -49.4375 54.75 C-50.11683594 54.96092285 -50.79617187 55.1718457 -51.49609375 55.38916016 C-61.41804304 58.25252573 -71.68576784 58.18145891 -81.9375 58.1875 C-83.02740234 58.19974609 -84.11730469 58.21199219 -85.24023438 58.22460938 C-92.68263758 58.23787569 -99.70264126 57.45190375 -107 56 C-117.04948659 69.39931545 -120.16839464 83.45546659 -121.31689453 99.94213867 C-121.37989746 100.8004126 -121.44290039 101.65868652 -121.5078125 102.54296875 C-121.55566895 103.30633545 -121.60352539 104.06970215 -121.65283203 104.85620117 C-122.03514745 107.21703924 -122.8321404 108.92579898 -124 111 C-127.03450875 108.15805307 -129.25289831 105.28168865 -131.4375 101.75 C-132.035625 100.78707031 -132.63375 99.82414062 -133.25 98.83203125 C-133.8275 97.89746094 -134.405 96.96289062 -135 96 C-135.7734375 94.79923828 -135.7734375 94.79923828 -136.5625 93.57421875 C-137.01625 92.86910156 -137.47 92.16398437 -137.9375 91.4375 C-138.33839844 90.81746094 -138.73929688 90.19742188 -139.15234375 89.55859375 C-140 88 -140 88 -140 86 C-140.66 86 -141.32 86 -142 86 C-144.08419901 81.61461688 -146.14670243 77.22055731 -148.17089844 72.80712891 C-148.81940129 71.39363711 -149.47478634 69.98330235 -150.1328125 68.57421875 C-152.98950774 61.87623914 -153.12976229 55.1172603 -150.4375 48.375 C-146.50096318 40.52964845 -140.12902703 33.84834451 -132.1171875 30.125 C-128.75880722 29.92671925 -127.32518574 31.8075647 -124.8125 33.9375 C-106.21899299 48.80644477 -84.52330111 51.9320367 -61.375 49.5 C-42.833861 46.10716271 -25.95248345 34.82922852 -15.25 19.4921875 C-12.14815786 14.54474928 -9.89542016 9.57097876 -8.0546875 4.03125 C-6.20506147 0.46900728 -3.8499418 0 0 0 Z " fill="#C7DBFB" transform="translate(290,182)"/>
<path d="M0 0 C3.54234302 2.76824431 6.69984435 6.0415319 9.25 9.75 C9.25 10.41 9.25 11.07 9.25 11.75 C9.91 11.75 10.57 11.75 11.25 11.75 C19.70280202 20.62707394 24.74583571 27.67148308 24.5859375 40.015625 C24.11899882 43.81628871 23.14780433 45.93907996 20.3125 48.5 C7.37331039 53.78130188 -9.54796707 46.74888266 -21.734375 41.62988281 C-31.74293448 37.26083625 -40.89350815 32.57294763 -47.75 23.75 C-49.22182061 19.33453817 -49.57591156 15.35053217 -48.75 10.75 C-46.87646521 7.53663766 -44.52259669 5.20478916 -41.75 2.75 C-41.22148438 2.255 -40.69296875 1.76 -40.1484375 1.25 C-29.32017793 -7.71131827 -11.45225018 -7.64324186 0 0 Z " fill="#99ADF9" transform="translate(130.75,360.25)"/>
<path d="M0 0 C0.72177557 5.06663417 1.43342266 10.13455731 2.13623047 15.20385742 C2.37604988 16.92363623 2.61850233 18.64305022 2.86376953 20.36206055 C6.00473951 42.40654165 6.00473951 42.40654165 5 48 C3.1015625 50.3515625 3.1015625 50.3515625 0.625 51.625 C-0.18710937 52.07101562 -0.99921875 52.51703125 -1.8359375 52.9765625 C-2.55007813 53.31429687 -3.26421875 53.65203125 -4 54 C-4.99 54.495 -4.99 54.495 -6 55 C-7.95339423 55.17369832 -9.91442704 55.26696102 -11.875 55.3125 C-13.44894531 55.36857422 -13.44894531 55.36857422 -15.0546875 55.42578125 C-18 55 -18 55 -20.24609375 53.53515625 C-22.7322043 49.94164679 -23.37432629 46.37271754 -24.1875 42.125 C-24.35185547 41.33480469 -24.51621094 40.54460937 -24.68554688 39.73046875 C-27.13236286 27.82329137 -27.13236286 27.82329137 -27.375 22 C-27.42398437 21.195625 -27.47296875 20.39125 -27.5234375 19.5625 C-26.75825209 15.81651768 -24.79492518 13.47259693 -22 11 C-19.39608991 9.35438343 -16.68214972 8.07290511 -13.875 6.8125 C-12.45314265 6.15793324 -11.033762 5.49795366 -9.6171875 4.83203125 C-8.99440918 4.55077393 -8.37163086 4.2695166 -7.72998047 3.97973633 C-5.90516117 3.05670715 -5.90516117 3.05670715 -4.46142578 1.38549805 C-3 0 -3 0 0 0 Z " fill="#C7DAFE" transform="translate(377,411)"/>
<path d="M0 0 C1.03543945 -0.01160156 1.03543945 -0.01160156 2.09179688 -0.0234375 C6.45670018 -0.0068881 10.00765498 0.65090619 14.0625 2.25 C14.0625 2.91 14.0625 3.57 14.0625 4.25 C14.660625 4.3325 15.25875 4.415 15.875 4.5 C18.79274575 5.50036997 19.60200675 6.54808749 21.0625 9.25 C21.6875 12 21.6875 12 21.0625 15.25 C14.61158324 24.93588976 4.09388422 31.12892544 -6.9375 34.25 C-10.48046875 34.55078125 -10.48046875 34.55078125 -14.125 34.5625 C-15.33542969 34.57925781 -16.54585938 34.59601563 -17.79296875 34.61328125 C-20.9375 34.25 -20.9375 34.25 -22.83984375 33.0859375 C-25.55035438 28.5523432 -24.42611268 22.00922452 -23.5390625 17 C-21.54483417 10.57703084 -16.56906554 4.24453859 -10.67578125 1.0078125 C-7.10137212 0.0186037 -3.67728187 -0.0409725 0 0 Z " fill="#99ADF9" transform="translate(450.9375,150.75)"/>
<path d="M0 0 C6.00009609 0.89334764 11.04713051 2.05891313 15 7 C20.92283468 16.70686795 23.51765438 26.61759213 22 38 C20.51922894 41.2596194 18.8094771 43.76401708 16 46 C11.83799373 47.46050119 7.34219491 47.67579778 3 47 C-1.24035329 43.95800742 -3.81449151 40.0743356 -5 35 C-6.11113602 26.49980943 -5.15751469 21.51489793 -0.26953125 14.56640625 C2.05769086 9.86183724 0.94543866 5.00223001 0 0 Z " fill="#E1EBFE" transform="translate(355,194)"/>
<path d="M0 0 C1.23121582 -0.045802 1.23121582 -0.045802 2.48730469 -0.0925293 C6.98199042 -0.09483474 8.5959044 0.06379905 12.1953125 3.03125 C12.83210938 3.8459375 13.46890625 4.660625 14.125 5.5 C13.29054294 9.15074963 11.89959948 10.96421189 8.875 13 C-2.50170082 19.58431769 -17.03589658 23.84109887 -30.171875 21.00390625 C-32.0625 20.3125 -32.0625 20.3125 -34.875 18.5 C-35.55078125 15.88671875 -35.55078125 15.88671875 -35.875 13.5 C-31.17879588 9.04775453 -27.10039567 5.61030362 -20.875 3.5 C-20.14410156 3.22285156 -19.41320312 2.94570312 -18.66015625 2.66015625 C-12.48409588 0.59512528 -6.46209471 0.12975847 0 0 Z " fill="#344D90" transform="translate(237.875,131.5)"/>
<path d="M0 0 C3 1 3 1 4.6484375 4.17578125 C5.23511775 5.54997663 5.80995567 6.9292677 6.375 8.3125 C6.67881592 9.03219971 6.98263184 9.75189941 7.2956543 10.4934082 C8.20706002 12.65826684 9.10411645 14.8286811 10 17 C10.49371094 18.17304688 10.98742187 19.34609375 11.49609375 20.5546875 C12.67689555 23.36478555 13.84639691 26.17864112 15 29 C15.37253906 29.8559375 15.74507813 30.711875 16.12890625 31.59375 C17.28431064 34.78536032 17.13193062 37.63576927 17 41 C12.88954343 42.99294864 9.55147826 43.59000644 5 43 C-1.47821128 33.95915477 -5.75503025 19.41568964 -6.625 8.4375 C-5.9817039 4.89937143 -5.69442188 4.23811659 -3.1875 1.9375 C-2.135625 1.298125 -1.08375 0.65875 0 0 Z " fill="#C8DAFE" transform="translate(411,319)"/>
<path d="M0 0 C3.51136448 1.07236273 5.53497262 2.82748364 8.3125 5.21484375 C11.40392457 7.84748547 14.46853172 10.44630218 17.75 12.83984375 C15.9168733 18.83916749 13.67678249 24.28904938 10.75 29.83984375 C2.77419214 26.29322427 -4.31901244 22.23632508 -9.25 14.83984375 C-9.77673824 10.88930693 -9.42779616 9.15251975 -7.4375 5.65234375 C-6.715625 4.72421875 -5.99375 3.79609375 -5.25 2.83984375 C-4.775625 2.20046875 -4.30125 1.56109375 -3.8125 0.90234375 C-2.25 -0.16015625 -2.25 -0.16015625 0 0 Z " fill="#C7DAFE" transform="translate(242.25,293.16015625)"/>
<path d="M0 0 C2.71499506 2.71499506 3.7444795 5.9267505 5.125 9.4375 C5.40214844 10.11876953 5.67929688 10.80003906 5.96484375 11.50195312 C7.14842926 14.47840831 8 16.76799028 8 20 C-6.29605725 23.45872353 -19.32671013 25.31293746 -34 25 C-34.38218767 23.34385343 -34.71395102 21.67542976 -35 20 C-34 19 -34 19 -30.4375 18.6640625 C-25.77904717 18.12638902 -22.1298788 16.52512254 -18 14.375 C-16.95561768 13.84193237 -16.95561768 13.84193237 -15.89013672 13.2980957 C-9.46646424 9.91329708 -4.06699191 6.10048787 0 0 Z " fill="#C8DAFE" transform="translate(244,335)"/>
<path d="M0 0 C2 2 2 2 2.4375 4.3125 C1.82301078 8.08721948 -0.25165325 9.4527518 -3 12 C-4.17897356 15.53692069 -3.82320448 17.97747466 -3.5625 21.6875 C-3.5359807 26.83754764 -3.73628992 29.74461785 -7.375 33.5 C-9.58203125 35.31640625 -9.58203125 35.31640625 -12 37 C-13.24330078 37.87978516 -13.24330078 37.87978516 -14.51171875 38.77734375 C-19.33129582 41.91412821 -23.2389273 43.74951858 -29 44 C-26.88847696 41.88847696 -24.86514016 39.89548362 -22.5 38.0625 C-18.04554917 32.60579773 -16.73869151 25.57682203 -15.33203125 18.765625 C-13.83929981 11.63670153 -11.78703704 6.66381466 -6 2 C-2.5625 0.5 -2.5625 0.5 0 0 Z " fill="#C8DAFE" transform="translate(221,275)"/>
<path d="M0 0 C4.01397785 0.64510358 5.09786566 1.35965422 7.5 4.5625 C9.2258872 7.51140798 9.79517458 9.71189312 9.8125 13.125 C9.82925781 13.88941406 9.84601563 14.65382813 9.86328125 15.44140625 C9.40957043 18.09049198 8.64355952 18.98010819 6.5 20.5625 C0.95352412 20.5625 -1.6669725 18.22129898 -5.5 14.5625 C-7.84168764 11.04996854 -7.99623677 9.69780644 -7.5 5.5625 C-5.39039736 1.68083115 -4.40778028 0.70839326 0 0 Z " fill="#738AF5" transform="translate(107.5,366.4375)"/>
<path d="M0 0 C1.32 0 2.64 0 4 0 C4.20625 0.598125 4.4125 1.19625 4.625 1.8125 C6.50926082 4.81018767 8.81132084 5.61361776 12 7 C11.38722388 9.96175123 10.74627478 11.38058783 9 14 C8.83286431 16.62531524 8.83286431 16.62531524 9 19 C6.54700814 19.81766395 5.12810602 20.02627816 2.5625 19.5 C-0.2832481 18.94473208 -2.21591523 19.28409249 -5 20 C-5.1953125 17.98177083 -5.390625 15.96354167 -5.5859375 13.9453125 C-5.86374749 11.77331755 -5.86374749 11.77331755 -8 10 C-8 8.68 -8 7.36 -8 6 C-7.05125 5.7525 -6.1025 5.505 -5.125 5.25 C-1.91306809 4.3142923 -1.91306809 4.3142923 -0.625 1.875 C-0.41875 1.25625 -0.2125 0.6375 0 0 Z " fill="#FDC174" transform="translate(361,87)"/>
<path d="M0 0 C1.8125 1.125 1.8125 1.125 3 3 C3.59782768 6.84317792 3.1494718 8.70680532 1.375 12.1875 C-1.28095429 15.33270902 -3.11077983 16.67766514 -7 18 C-10.375 17.6875 -10.375 17.6875 -13 17 C-14.67414714 11.26006696 -14.67414714 11.26006696 -12.8359375 7.82421875 C-9.29977007 3.05997347 -6.4248516 -0.80310645 0 0 Z " fill="#9CAFF9" transform="translate(496,108)"/>
<path d="M0 0 C4.95366586 0.03216666 8.1487871 0.6487871 11.75 4.25 C12 7.6875 12 7.6875 11.75 11.25 C8.02993273 13.73004485 5.06020129 13.78775668 0.75 13.25 C-3.2726217 11.68564712 -4.84149109 10.86276337 -7.25 7.25 C-6.62020308 0.95203084 -6.22827192 0.0999188 0 0 Z " fill="#9AAEF9" transform="translate(102.25,431.75)"/>
<path d="M0 0 C3.33715537 0.48666849 4.02180026 0.81912484 6 3.4375 C6.93658122 8.33978548 6.40074372 12.50777457 4.4375 17.0625 C2 19.4375 2 19.4375 -1.75 19.8125 C-3.35875 19.626875 -3.35875 19.626875 -5 19.4375 C-7.70889056 14.65710489 -7.25833153 9.63128452 -6 4.4375 C-3.66778694 0.5348856 -3.66778694 0.5348856 0 0 Z " fill="#99ACF9" transform="translate(491,190.5625)"/>
<path d="M0 0 C3.875 1.75 3.875 1.75 5 4 C6.64363134 4.72159424 8.31050386 5.39351421 10 6 C9.11223998 9.69900008 8.05418136 13.34550461 7 17 C3.37 17 -0.26 17 -4 17 C-5 13 -5 13 -4 11 C-4.99 10.67 -5.98 10.34 -7 10 C-7 8.35 -7 6.7 -7 5 C-5.35 5 -3.7 5 -2 5 C-1.34 3.35 -0.68 1.7 0 0 Z " fill="#FDC175" transform="translate(174,463)"/>
<path d="M0 0 C3.12459489 0.94995135 4.27234577 2.07666719 6.37109375 4.546875 C6.9640625 5.22234375 7.55703125 5.8978125 8.16796875 6.59375 C9.7709026 9.02400454 10.24049941 10.93240181 10.62109375 13.796875 C6.82938983 16.32467761 4.07117699 16.41132164 -0.37890625 15.796875 C-2.81153765 14.09403302 -3.69694298 12.3198199 -5.37890625 9.796875 C-5.9222069 3.71190768 -5.9222069 3.71190768 -4.19140625 0.796875 C-2.37890625 -0.203125 -2.37890625 -0.203125 0 0 Z " fill="#788EF5" transform="translate(142.37890625,375.203125)"/>
<path d="M0 0 C2.375 0.75 2.375 0.75 3.375 1.75 C3.78225741 5.41531671 3.80740706 7.14771874 1.625 10.1875 C-0.625 11.75 -0.625 11.75 -2.75 11.6875 C-4.625 10.75 -4.625 10.75 -6.625 7.75 C-6.41482001 4.94760013 -5.93543413 3.21565119 -4.375 0.875 C-2.625 -0.25 -2.625 -0.25 0 0 Z " fill="#748BF5" transform="translate(458.625,157.25)"/>
<path d="M0 0 C1.5 1.125 1.5 1.125 3 3 C3.3125 6.0625 3.3125 6.0625 3 9 C2.34 9.66 1.68 10.32 1 11 C-0.32 11 -1.64 11 -3 11 C-3.36923077 3.49230769 -3.36923077 3.49230769 -1.5 1 C-1.005 0.67 -0.51 0.34 0 0 Z " fill="#788FF6" transform="translate(431,163)"/>
</svg>
